Coordinates
version=1
nRows=16
nColumns=38
inDegrees=no

Units are S.I. units (second, meters, Newtons, ...)
If the header above contains a line with 'inDegrees', this indicates whether rotational values are in degrees (yes) or radians (no).

endheader
time	pelvis_tilt	pelvis_list	pelvis_rotation	pelvis_tx	pelvis_ty	pelvis_tz	hip_flexion_r	hip_adduction_r	hip_rotation_r	knee_angle_r	ankle_angle_r	subtalar_angle_r	mtp_angle_r	hip_flexion_l	hip_adduction_l	hip_rotation_l	knee_angle_l	ankle_angle_l	subtalar_angle_l	mtp_angle_l	lumbar_extension	lumbar_bending	lumbar_rotation	arm_flex_r	arm_add_r	arm_rot_r	elbow_flex_r	pro_sup_r	wrist_flex_r	wrist_dev_r	arm_flex_l	arm_add_l	arm_rot_l	elbow_flex_l	pro_sup_l	wrist_flex_l	wrist_dev_l
8.3425	-0.278772	0.0178352	-3.08978	-0.172982	0.971366	-0.0212772	-0.437013	0.112846	-0.0918126	0.169274	0.272933	0	0	0.180852	-0.0360591	-0.10854	0.132078	0.0204171	0	0	-0.540148	0.0183447	0.13407	0.714221	-0.44646	1.38773	0.712221	0.474967	0	0	0.0491382	-0.211466	1.5708	0.37525	2.45049e-05	0	0
8.3525	-0.27717	0.0165614	-3.09146	-0.173817	0.969928	-0.0209385	-0.443641	0.11015	-0.0902935	0.17382	0.279312	0	0	0.180785	-0.0312342	-0.092091	0.118065	0.0261951	0	0	-0.537784	0.0146014	0.134718	0.712317	-0.440918	1.39091	0.708526	0.476149	0	0	0.0479541	-0.212309	1.5708	0.375639	1.78867e-05	0	0
8.36249	-0.274965	0.0147249	-3.09333	-0.174862	0.968456	-0.020506	-0.449511	0.106563	-0.0890915	0.179126	0.285313	0	0	0.181574	-0.0262321	-0.0766677	0.109216	0.0314293	0	0	-0.534406	0.0102352	0.134973	0.709397	-0.434843	1.39531	0.703921	0.476154	0	0	0.0468795	-0.213402	1.5708	0.376031	1.21783e-05	0	0
8.37248	-0.272228	0.0122412	-3.09534	-0.176125	0.966971	-0.0199612	-0.454679	0.101991	-0.0883224	0.185244	0.290837	0	0	0.183077	-0.020908	-0.0628576	0.10523	0.0352222	0	0	-0.530063	0.0052045	0.13482	0.705393	-0.428336	1.40083	0.69852	0.475058	0	0	0.0459051	-0.214713	1.5708	0.376382	7.78675e-06	0	0
8.38247	-0.269061	0.00903106	-3.09748	-0.177613	0.965494	-0.0192893	-0.459224	0.0963406	-0.0880969	0.192227	0.295767	0	0	0.185072	-0.0151097	-0.0510621	0.105575	0.0367872	0	0	-0.524837	-0.000536665	0.134263	0.700255	-0.421497	1.40737	0.692431	0.47294	0	0	0.0450264	-0.216208	1.5708	0.376657	4.99781e-06	0	0
8.39246	-0.26558	0.00503795	-3.09977	-0.179328	0.964051	-0.0184802	-0.463227	0.0895325	-0.0885024	0.20014	0.299973	0	0	0.187305	-0.00870939	-0.0415216	0.109574	0.0355797	0	0	-0.518836	-0.00702332	0.133336	0.693947	-0.414425	1.41482	0.685762	0.469881	0	0	0.044243	-0.217849	1.5708	0.376829	4.01954e-06	0	0
8.40245	-0.261908	0.000244021	-3.10223	-0.18127	0.962665	-0.017529	-0.466755	0.0815188	-0.089587	0.209054	0.3033	0	0	0.189527	-0.0016326	-0.034353	0.116489	0.03137	0	0	-0.512181	-0.0142655	0.13211	0.686447	-0.407225	1.42306	0.678628	0.465969	0	0	0.0435641	-0.219593	1.5708	0.376873	5.01027e-06	0	0
8.41244	-0.258162	-0.0053235	-3.10491	-0.183432	0.961359	-0.0164357	-0.469857	0.072288	-0.091355	0.219052	0.305559	0	0	0.191521	0.0061284	-0.029574	0.125597	0.0242552	0	0	-0.504997	-0.0222397	0.130695	0.677738	-0.400012	1.43195	0.671155	0.461304	0	0	0.0430095	-0.221393	1.5708	0.376772	8.08823e-06	0	0
8.42243	-0.254458	-0.0115974	-3.10787	-0.185807	0.960154	-0.015205	-0.472553	0.061863	-0.093781	0.230232	0.306535	0	0	0.193107	0.0145185	-0.0271199	0.136249	0.0146071	0	0	-0.497406	-0.0308897	0.129214	0.667821	-0.392899	1.44133	0.663468	0.455987	0	0	0.0426036	-0.223204	1.5708	0.376512	1.33218e-05	0	0
8.43242	-0.250896	-0.018481	-3.11114	-0.188382	0.959067	-0.0138465	-0.474829	0.0502935	-0.0968233	0.242726	0.30599	0	0	0.194157	0.0234325	-0.0268728	0.147923	0.00298462	0	0	-0.489532	-0.0401315	0.12778	0.656721	-0.385972	1.45106	0.65567	0.450118	0	0	0.0423709	-0.224987	1.5708	0.376093	2.06986e-05	0	0
8.44241	-0.247562	-0.0258554	-3.11477	-0.191139	0.958112	-0.0123737	-0.476616	0.0376546	-0.100435	0.256707	0.303668	0	0	0.194601	0.0327261	-0.0286919	0.16025	-0.00993651	0	0	-0.481495	-0.0498558	0.126471	0.64449	-0.379287	1.46098	0.647837	0.443792	0	0	0.0423382	-0.226719	1.5708	0.375529	3.00738e-05	0	0
8.45241	-0.244506	-0.0335833	-3.11873	-0.194055	0.957301	-0.0108039	-0.477777	0.0240484	-0.104572	0.272389	0.299297	0	0	0.194445	0.0422288	-0.0324207	0.173018	-0.023418	0	0	-0.473401	-0.0599285	0.125319	0.631212	-0.372866	1.47095	0.640017	0.437091	0	0	0.0425451	-0.22839	1.5708	0.374851	4.1096e-05	0	0
8.4624	-0.241737	-0.0415119	-3.12301	-0.197092	0.956637	-0.00915703	-0.478097	0.0096069	-0.109199	0.29003	0.292591	0	0	0.193765	0.0517568	-0.0378718	0.186138	-0.0367007	0	0	-0.465338	-0.0701897	0.124308	0.617001	-0.366706	1.48083	0.632236	0.430079	0	0	0.043052	-0.230011	1.5708	0.374101	5.31143e-05	0	0
8.47239	-0.239222	-0.0494884	-3.1275	-0.20021	0.956119	-0.00745252	-0.4773	-0.00552042	-0.114298	0.309912	0.283275	0	0	0.192686	0.0611413	-0.0448009	0.199591	-0.0490455	0	0	-0.457375	-0.0804634	0.123359	0.602012	-0.360782	1.49053	0.624499	0.422791	0	0	0.0439343	-0.23161	1.5708	0.373338	6.50685e-05	0	0
8.48238	-0.236905	-0.05737	-3.13209	-0.203361	0.955741	-0.00570734	-0.475078	-0.0211764	-0.119857	0.332318	0.271118	0	0	0.191345	0.0702473	-0.0528865	0.213368	-0.0597787	0	0	-0.449569	-0.0905641	0.122339	0.586432	-0.355053	1.49999	0.616794	0.415237	0	0	0.0452738	-0.233224	1.5708	0.372633	7.53687e-05	0	0
8.49237	-0.234711	-0.0650364	-3.13662	-0.206493	0.955493	-0.00393399	-0.471111	-0.0372108	-0.125859	0.357513	0.25596	0	0	0.189868	0.07899	-0.0617288	0.227433	-0.0683467	0	0	-0.441967	-0.100311	0.121063	0.570466	-0.349469	1.50918	0.609101	0.407409	0	0	0.0471535	-0.234897	1.5708	0.372069	8.17772e-05	0	0
